ply
format ascii 1.0
comment Created by Blender 2.79 (sub 0) - www.blender.org, source file: ''
element vertex 235
property float x
property float y
property float z
property float nx
property float ny
property float nz
property uchar red
property uchar green
property uchar blue
element face 128
property list uchar uint vertex_indices
end_header
0.076711 0.057661 -0.031750 0.000000 0.000000 -1.000000 255 255 255
0.076711 0.056639 -0.031750 0.000000 0.000000 -1.000000 255 255 255
0.076648 0.057661 -0.031750 0.000000 0.000000 -1.000000 255 255 255
0.076648 0.056639 -0.031750 0.000000 0.000000 -1.000000 255 255 255
-0.076711 0.056639 -0.031750 -0.000000 -0.000000 -1.000000 255 255 255
-0.076711 0.057661 -0.031750 -0.000000 -0.000000 -1.000000 255 255 255
-0.076648 0.056639 -0.031750 -0.000000 -0.000000 -1.000000 255 255 255
-0.076648 0.057661 -0.031750 -0.000000 -0.000000 -1.000000 255 255 255
-0.076648 0.056639 -0.032261 -0.000000 1.000000 0.000000 255 255 255
-0.076711 0.056639 -0.032261 -0.000000 1.000000 0.000000 255 255 255
-0.076648 0.056639 -0.031750 -0.000000 1.000000 0.000000 255 255 255
-0.076711 0.056639 -0.031750 -0.000000 1.000000 0.000000 255 255 255
-0.018539 0.000006 -0.032261 0.000000 0.000000 -1.000000 255 255 255
-0.018539 -0.000006 -0.032261 0.000000 0.000000 -1.000000 255 255 255
-0.076648 0.000006 -0.032261 0.000000 0.000000 -1.000000 255 255 255
-0.076648 -0.000006 -0.032261 0.000000 0.000000 -1.000000 255 255 255
-0.076648 -0.056639 -0.032261 0.000000 0.000000 -1.000000 255 255 255
-0.076711 -0.056639 -0.032261 0.000000 0.000000 -1.000000 255 255 255
-0.076648 -0.000006 -0.032261 0.000059 0.000000 -1.000000 255 255 255
-0.076711 -0.056639 -0.032261 0.000059 0.000000 -1.000000 255 255 255
-0.076648 0.000006 -0.032261 0.000059 0.000000 -1.000000 255 255 255
-0.076711 -0.056639 -0.032261 -0.000000 0.000000 -1.000000 148 101 52
-0.076711 0.056639 -0.032261 -0.000000 0.000000 -1.000000 148 101 52
-0.076648 0.000006 -0.032261 -0.000000 0.000000 -1.000000 148 101 52
-0.076711 0.056639 -0.032261 0.000000 0.000000 -1.000000 255 255 255
-0.076648 0.056639 -0.032261 0.000000 0.000000 -1.000000 255 255 255
-0.018539 0.000006 -0.031750 1.000000 0.000000 0.000000 255 255 255
-0.018539 0.056639 -0.031750 1.000000 0.000000 0.000000 255 255 255
-0.018539 0.056639 -0.031239 1.000000 0.000000 0.000000 255 255 255
-0.018539 -0.056639 -0.031239 1.000000 0.000000 -0.000000 148 101 52
-0.018539 -0.056639 -0.031750 1.000000 0.000000 -0.000000 148 101 52
-0.018539 -0.000006 -0.031750 1.000000 0.000000 -0.000000 148 101 52
-0.018539 -0.000006 -0.032261 1.000000 0.000000 0.000000 255 255 255
-0.018539 0.000006 -0.032261 1.000000 0.000000 0.000000 255 255 255
-0.018539 -0.000006 -0.031750 1.000000 0.000000 0.000000 255 255 255
-0.018539 -0.056639 -0.031239 1.000000 0.000000 0.000000 255 255 255
-0.018539 0.000006 -0.031750 1.000000 0.000000 0.000000 148 101 52
-0.018539 0.056639 -0.031239 1.000000 0.000000 0.000000 148 101 52
0.076648 0.056639 -0.031750 0.000000 1.000000 -0.000000 255 255 255
0.076711 0.056639 -0.031750 0.000000 1.000000 -0.000000 255 255 255
0.076648 0.056639 -0.032261 0.000000 1.000000 -0.000000 255 255 255
0.076711 0.056639 -0.032261 0.000000 1.000000 -0.000000 255 255 255
0.076648 0.056639 -0.032261 0.000000 0.000000 -1.000000 255 255 255
0.076711 0.056639 -0.032261 0.000000 0.000000 -1.000000 255 255 255
0.076648 0.000006 -0.032261 0.000000 0.000000 -1.000000 255 255 255
0.076648 0.000006 -0.032261 0.000000 0.000000 -1.000000 148 101 52
0.076711 0.056639 -0.032261 0.000000 0.000000 -1.000000 173 136 98
0.076711 -0.056639 -0.032261 0.000000 0.000000 -1.000000 148 101 52
0.018539 -0.000006 -0.032261 -0.000000 -0.000000 -1.000000 255 255 255
0.018539 0.000006 -0.032261 -0.000000 -0.000000 -1.000000 255 255 255
0.076648 -0.000006 -0.032261 -0.000000 0.000000 -1.000000 255 255 255
0.076648 -0.000006 -0.032261 -0.000059 -0.000000 -1.000000 255 255 255
0.076648 0.000006 -0.032261 -0.000059 -0.000000 -1.000000 255 255 255
0.076711 -0.056639 -0.032261 -0.000059 -0.000000 -1.000000 255 255 255
0.076648 -0.000006 -0.032261 0.000000 0.000000 -1.000000 148 101 52
0.076648 -0.056639 -0.032261 0.000000 0.000000 -1.000000 148 101 52
0.018539 -0.056639 -0.031239 -1.000000 -0.000000 0.000000 201 179 152
0.018539 0.056639 -0.031239 -1.000000 -0.000000 0.000000 220 205 188
0.018539 0.000006 -0.031750 -1.000000 -0.000000 0.000000 148 101 52
0.018539 0.000006 -0.031750 -1.000000 -0.000000 0.000000 152 107 60
0.018539 0.056639 -0.031239 -1.000000 -0.000000 0.000000 220 205 190
0.018539 0.056639 -0.031750 -1.000000 -0.000000 0.000000 220 204 188
0.018539 -0.056639 -0.031750 -1.000000 -0.000000 -0.000000 148 101 52
0.018539 -0.056639 -0.031239 -1.000000 -0.000000 -0.000000 148 101 52
0.018539 -0.000006 -0.031750 -1.000000 -0.000000 -0.000000 148 101 52
0.018539 -0.000006 -0.031750 -1.000000 -0.000000 -0.000000 255 255 255
0.018539 -0.056639 -0.031239 -1.000000 -0.000000 -0.000000 255 255 255
0.018539 0.000006 -0.031750 -1.000000 -0.000000 -0.000000 255 255 255
0.018539 -0.000006 -0.032261 -1.000000 0.000000 0.000000 255 255 255
0.018539 0.000006 -0.032261 -1.000000 -0.000000 0.000000 255 255 255
0.076648 -0.056639 -0.031750 0.000000 0.000000 -1.000000 255 255 255
0.076711 -0.056639 -0.031750 0.000000 0.000000 -1.000000 255 255 255
0.076648 -0.057661 -0.031750 0.000000 0.000000 -1.000000 255 255 255
0.076711 -0.057661 -0.031750 -0.000000 0.000000 -1.000000 255 255 255
-0.076648 -0.057661 -0.031750 0.000000 -0.000000 -1.000000 255 255 255
-0.076711 -0.057661 -0.031750 0.000000 -0.000000 -1.000000 255 255 255
-0.076648 -0.056639 -0.031750 0.000000 -0.000000 -1.000000 255 255 255
-0.076711 -0.056639 -0.031750 0.000000 0.000000 -1.000000 255 255 255
0.075689 -0.056639 0.031750 -0.000000 -0.000000 1.000000 148 101 52
0.076711 -0.057661 0.031750 -0.000000 -0.000000 1.000000 148 101 52
0.075689 0.056639 0.031750 -0.000000 -0.000000 1.000000 148 101 52
0.076711 0.057661 0.031750 0.000000 -0.000000 1.000000 148 101 52
-0.075689 0.056639 0.031750 -0.000000 0.000000 1.000000 148 101 52
-0.076711 0.057661 0.031750 -0.000000 0.000000 1.000000 148 101 52
-0.075689 -0.056639 0.031750 -0.000000 -0.000000 1.000000 148 101 52
-0.076711 -0.057661 0.031750 0.000000 -0.000000 1.000000 148 101 52
-0.076711 0.057661 0.031750 -1.000000 0.000000 0.000000 148 101 52
-0.076711 0.057661 -0.031750 -1.000000 0.000000 0.000000 148 101 52
-0.076711 -0.057661 0.031750 -1.000000 0.000000 0.000000 148 101 52
-0.076711 0.056639 -0.031750 -1.000000 0.000000 0.000000 148 101 52
-0.076711 -0.057661 -0.031750 -1.000000 -0.000000 -0.000000 148 101 52
-0.076711 -0.056639 -0.031750 -1.000000 -0.000000 -0.000000 148 101 52
-0.076711 -0.056639 -0.032261 -1.000000 -0.000000 0.000000 148 101 52
-0.076711 0.056639 -0.032261 -1.000000 0.000000 0.000000 148 101 52
-0.076711 -0.057661 0.031750 -0.000000 -1.000000 0.000000 148 101 52
-0.076711 -0.057661 -0.031750 -0.000000 -1.000000 0.000000 148 101 52
0.076711 -0.057661 0.031750 -0.000000 -1.000000 0.000000 148 101 52
0.076711 -0.057661 0.031750 0.000000 -1.000000 0.000000 255 255 255
-0.076711 -0.057661 -0.031750 0.000000 -1.000000 0.000000 149 103 54
-0.076648 -0.057661 -0.031750 0.000000 -1.000000 0.000000 149 103 54
0.076711 -0.057661 -0.031750 0.000000 -1.000000 0.000000 152 107 59
0.076711 -0.057661 0.031750 0.000000 -1.000000 0.000000 246 242 238
0.076648 -0.057661 -0.031750 0.000000 -1.000000 0.000000 153 107 59
0.076648 -0.057661 -0.031750 0.000000 -1.000000 -0.000000 148 101 52
-0.076648 -0.057661 -0.031750 0.000000 -1.000000 -0.000000 148 101 52
0.076648 -0.057661 -0.032772 0.000000 -1.000000 0.000000 148 101 52
-0.076648 -0.057661 -0.032772 0.000000 -1.000000 0.000000 148 101 52
0.076711 -0.057661 0.031750 1.000000 0.000000 -0.000000 148 101 52
0.076711 -0.057661 -0.031750 1.000000 0.000000 -0.000000 148 101 52
0.076711 0.057661 0.031750 1.000000 0.000000 -0.000000 148 101 52
0.076711 -0.056639 -0.031750 1.000000 0.000000 -0.000000 148 101 52
0.076711 0.057661 -0.031750 1.000000 -0.000000 0.000000 148 101 52
0.076711 0.056639 -0.031750 1.000000 -0.000000 0.000000 148 101 52
0.076711 0.056639 -0.032261 1.000000 0.000000 -0.000000 148 101 52
0.076711 0.056639 -0.032261 1.000000 -0.000000 0.000000 148 102 53
0.076711 -0.056639 -0.032261 1.000000 -0.000000 0.000000 148 101 52
0.076711 0.057661 0.031750 -0.000000 1.000000 0.000000 148 101 52
0.076711 0.057661 -0.031750 -0.000000 1.000000 0.000000 148 101 52
-0.076711 0.057661 0.031750 -0.000000 1.000000 0.000000 148 101 52
-0.076711 0.057661 0.031750 0.000000 1.000000 -0.000000 150 103 55
0.076711 0.057661 -0.031750 0.000000 1.000000 -0.000000 255 255 255
0.076648 0.057661 -0.031750 0.000000 1.000000 -0.000000 255 255 255
-0.076711 0.057661 -0.031750 0.000000 1.000000 0.000000 148 101 52
-0.076648 0.057661 -0.031750 0.000000 1.000000 0.000000 148 101 52
0.076648 0.057661 -0.031750 0.000000 1.000000 0.000000 148 101 52
-0.076648 0.057661 -0.032772 0.000000 1.000000 -0.000000 148 101 52
0.076648 0.057661 -0.032772 0.000000 1.000000 -0.000000 148 101 52
-0.075689 0.056639 0.031750 1.000000 0.000000 -0.000000 148 102 53
-0.075689 -0.056639 0.031750 1.000000 0.000000 -0.000000 148 102 53
-0.075689 0.056639 -0.031239 1.000000 0.000000 -0.000000 148 101 53
-0.075689 -0.056639 -0.031239 1.000000 -0.000000 0.000000 148 101 52
0.075689 -0.056639 0.031750 -0.000000 1.000000 0.000000 148 101 52
0.075689 -0.056639 -0.031239 -0.000000 1.000000 0.000000 148 101 52
-0.075689 -0.056639 0.031750 -0.000000 1.000000 0.000000 148 101 52
0.018539 -0.056639 -0.031239 0.000000 1.000000 -0.000000 148 101 52
-0.075689 -0.056639 -0.031239 0.000000 1.000000 0.000000 148 101 52
-0.018539 -0.056639 -0.031239 0.000000 1.000000 0.000000 148 101 52
-0.018539 -0.056639 -0.031750 0.000000 1.000000 -0.000000 148 101 52
0.018539 -0.056639 -0.031750 0.000000 1.000000 -0.000000 148 101 52
0.075689 -0.056639 0.031750 -1.000000 -0.000000 0.000000 148 101 52
0.075689 0.056639 0.031750 -1.000000 -0.000000 0.000000 148 101 52
0.075689 -0.056639 -0.031239 -1.000000 -0.000000 0.000000 148 101 52
0.075689 0.056639 -0.031239 -1.000000 -0.000000 0.000000 148 101 52
-0.075689 0.056639 0.031750 -0.000000 -1.000000 0.000000 148 101 52
-0.075689 0.056639 -0.031239 -0.000000 -1.000000 0.000000 148 101 52
0.075689 0.056639 0.031750 -0.000000 -1.000000 0.000000 148 101 52
-0.018539 0.056639 -0.031239 0.000000 -1.000000 0.000000 148 101 52
0.075689 0.056639 -0.031239 0.000000 -1.000000 0.000000 148 101 52
0.075689 0.056639 0.031750 0.000000 -1.000000 0.000000 149 102 53
0.018539 0.056639 -0.031239 0.000000 -1.000000 0.000000 148 101 52
0.018539 0.056639 -0.031750 0.000000 -1.000000 0.000000 148 101 52
-0.018539 0.056639 -0.031750 0.000000 -1.000000 0.000000 148 101 52
-0.076711 -0.056639 -0.031750 -0.000000 -1.000000 0.000000 255 255 255
-0.076711 -0.056639 -0.032261 -0.000000 -1.000000 0.000000 255 255 255
-0.076648 -0.056639 -0.031750 -0.000000 -1.000000 0.000000 255 255 255
-0.076648 -0.056639 -0.032261 0.000000 -1.000000 0.000000 255 255 255
-0.075689 -0.056639 -0.031239 0.000000 -0.000000 1.000000 148 101 52
-0.018539 -0.056639 -0.031239 0.000000 -0.000000 1.000000 148 101 52
-0.075689 0.056639 -0.031239 0.000000 -0.000000 1.000000 148 101 52
-0.018539 0.056639 -0.031239 0.000000 -0.000000 1.000000 148 101 52
0.076711 -0.056639 -0.032261 0.000000 -1.000000 0.000000 255 255 255
0.076711 -0.056639 -0.031750 0.000000 -1.000000 0.000000 255 255 255
0.076648 -0.056639 -0.032261 0.000000 -1.000000 0.000000 255 255 255
0.076648 -0.056639 -0.031750 0.000000 -1.000000 -0.000000 255 255 255
0.075689 0.056639 -0.031239 0.000000 -0.000000 1.000000 148 101 52
0.018539 0.056639 -0.031239 0.000000 -0.000000 1.000000 148 101 52
0.075689 -0.056639 -0.031239 0.000000 -0.000000 1.000000 148 101 52
0.018539 -0.056639 -0.031239 0.000000 -0.000000 1.000000 148 101 52
0.076648 -0.056639 -0.031750 1.000000 0.000000 -0.000000 255 255 255
0.076648 -0.057661 -0.031750 1.000000 0.000000 -0.000000 255 255 255
0.076648 -0.056639 -0.032261 1.000000 0.000000 -0.000000 255 255 255
0.076648 -0.056639 -0.032261 1.000000 -0.000000 0.000000 148 101 52
0.076648 -0.057661 -0.031750 1.000000 -0.000000 0.000000 148 101 52
0.076648 -0.057661 -0.032772 1.000000 -0.000000 0.000000 148 101 52
0.076648 -0.000006 -0.032261 1.000000 0.000000 -0.000000 148 101 52
0.076648 -0.057661 -0.032772 1.000000 0.000000 -0.000000 228 217 203
0.076648 -0.000006 -0.032772 1.000000 0.000000 -0.000000 148 101 52
-0.076648 -0.000006 -0.032772 0.000000 0.000000 -1.000000 148 101 52
0.076648 -0.000006 -0.032772 0.000000 0.000000 -1.000000 148 101 52
-0.076648 -0.057661 -0.032772 0.000000 0.000000 -1.000000 148 101 52
0.076648 -0.057661 -0.032772 0.000000 0.000000 -1.000000 148 101 52
-0.076648 -0.000006 -0.032261 -1.000000 0.000000 0.000000 148 101 52
-0.076648 -0.000006 -0.032772 -1.000000 0.000000 0.000000 148 101 52
-0.076648 -0.056639 -0.032261 -1.000000 0.000000 0.000000 148 101 52
-0.076648 -0.056639 -0.032261 -1.000000 0.000000 0.000000 255 255 255
-0.076648 -0.000006 -0.032772 -1.000000 0.000000 0.000000 255 255 255
-0.076648 -0.057661 -0.032772 -1.000000 0.000000 0.000000 255 255 255
-0.076648 -0.056639 -0.031750 -1.000000 0.000000 -0.000000 255 255 255
-0.076648 -0.057661 -0.031750 -1.000000 0.000000 0.000000 255 255 255
0.018539 -0.056639 -0.031750 0.000000 -0.000000 1.000000 148 101 52
0.018539 -0.000006 -0.031750 0.000000 -0.000000 1.000000 148 101 52
-0.018539 -0.056639 -0.031750 0.000000 -0.000000 1.000000 148 101 52
-0.018539 -0.000006 -0.031750 0.000000 -0.000000 1.000000 148 101 52
0.018539 -0.000006 -0.032261 0.000000 1.000000 0.000000 255 255 255
0.076648 -0.000006 -0.032261 0.000000 1.000000 0.000000 255 255 255
0.076648 -0.000006 -0.032772 0.000000 1.000000 0.000000 255 255 255
-0.076648 -0.000006 -0.032772 0.000000 1.000000 0.000000 255 255 255
-0.076648 -0.000006 -0.032261 0.000000 1.000000 0.000000 255 255 255
-0.018539 -0.000006 -0.032261 0.000000 1.000000 0.000000 255 255 255
-0.018539 -0.000006 -0.031750 0.000000 1.000000 0.000000 255 255 255
0.018539 -0.000006 -0.031750 0.000000 1.000000 0.000000 255 255 255
0.076648 0.000006 -0.032261 1.000000 0.000000 0.000000 255 255 255
0.076648 0.000006 -0.032772 1.000000 0.000000 0.000000 255 255 255
0.076648 0.056639 -0.032261 1.000000 0.000000 0.000000 255 255 255
0.076648 0.056639 -0.032261 1.000000 0.000000 -0.000000 148 101 52
0.076648 0.000006 -0.032772 1.000000 0.000000 -0.000000 148 101 52
0.076648 0.057661 -0.032772 1.000000 0.000000 -0.000000 148 101 52
0.076648 0.056639 -0.031750 1.000000 0.000000 0.000000 148 101 52
0.076648 0.056639 -0.031750 1.000000 0.000000 0.000000 255 255 255
0.076648 0.057661 -0.032772 1.000000 0.000000 0.000000 255 255 255
0.076648 0.057661 -0.031750 1.000000 0.000000 0.000000 255 255 255
-0.018539 0.000006 -0.031750 0.000000 -0.000000 1.000000 148 101 52
0.018539 0.000006 -0.031750 0.000000 -0.000000 1.000000 148 101 52
-0.018539 0.056639 -0.031750 0.000000 -0.000000 1.000000 148 101 52
0.018539 0.056639 -0.031750 0.000000 -0.000000 1.000000 148 101 52
-0.076648 0.056639 -0.031750 -1.000000 0.000000 0.000000 255 255 255
-0.076648 0.057661 -0.031750 -1.000000 0.000000 0.000000 255 255 255
-0.076648 0.056639 -0.032261 -1.000000 0.000000 0.000000 255 255 255
-0.076648 0.056639 -0.032261 -1.000000 -0.000000 0.000000 148 101 52
-0.076648 0.057661 -0.031750 -1.000000 -0.000000 0.000000 148 101 52
-0.076648 0.057661 -0.032772 -1.000000 -0.000000 0.000000 148 101 52
-0.076648 0.000006 -0.032261 -1.000000 0.000000 0.000000 148 101 52
-0.076648 0.000006 -0.032772 -1.000000 0.000000 0.000000 148 101 52
0.076648 0.000006 -0.032772 0.000000 0.000000 -1.000000 148 101 52
-0.076648 0.000006 -0.032772 0.000000 0.000000 -1.000000 148 101 52
0.076648 0.057661 -0.032772 0.000000 0.000000 -1.000000 148 101 52
-0.076648 0.057661 -0.032772 0.000000 0.000000 -1.000000 148 101 52
-0.076648 0.000006 -0.032772 -0.000000 -1.000000 -0.000000 255 255 255
0.076648 0.000006 -0.032772 -0.000000 -1.000000 -0.000000 255 255 255
0.018539 0.000006 -0.032261 -0.000000 -1.000000 -0.000000 255 255 255
0.076648 0.000006 -0.032261 0.000000 -1.000000 -0.000000 255 255 255
-0.076648 0.000006 -0.032261 0.000000 -1.000000 -0.000000 255 255 255
-0.018539 0.000006 -0.032261 0.000000 -1.000000 -0.000000 255 255 255
-0.018539 0.000006 -0.031750 -0.000000 -1.000000 -0.000000 255 255 255
0.018539 0.000006 -0.031750 0.000000 -1.000000 -0.000000 255 255 255
3 0 1 2
3 2 1 3
3 4 5 6
3 6 5 7
3 8 9 10
3 10 9 11
3 12 13 14
3 14 13 15
3 15 16 17
3 18 19 20
3 21 22 23
3 14 24 25
3 26 27 28
3 29 30 31
3 32 33 34
3 34 33 26
3 34 26 35
3 29 36 37
3 38 39 40
3 40 39 41
3 42 43 44
3 45 46 47
3 48 49 44
3 48 44 50
3 51 52 53
3 54 47 55
3 56 57 58
3 59 60 61
3 62 63 64
3 65 66 67
3 65 67 68
3 68 67 69
3 70 71 72
3 72 71 73
3 74 75 76
3 76 75 77
3 78 79 80
3 80 79 81
3 80 81 82
3 82 81 83
3 82 83 84
3 84 83 85
3 84 85 78
3 78 85 79
3 86 87 88
3 88 87 89
3 90 88 91
3 91 88 89
3 91 89 92
3 89 93 92
3 94 95 96
3 97 98 99
3 100 101 102
3 103 96 104
3 103 104 105
3 105 104 106
3 107 108 109
3 109 108 110
3 111 109 112
3 112 109 110
3 112 110 113
3 114 110 115
3 116 117 118
3 119 120 121
3 122 119 123
3 123 118 124
3 123 124 125
3 125 124 126
3 127 128 129
3 129 128 130
3 131 132 133
3 133 132 134
3 135 133 136
3 136 133 134
3 136 134 137
3 137 134 138
3 139 140 141
3 141 140 142
3 143 144 145
3 145 144 146
3 147 148 149
3 149 145 146
3 149 146 150
3 150 146 151
3 152 153 154
3 154 153 155
3 156 157 158
3 158 157 159
3 160 161 162
3 162 161 163
3 164 165 166
3 166 165 167
3 168 169 170
3 171 172 173
3 171 173 174
3 174 175 176
3 177 178 179
3 179 178 180
3 181 182 183
3 184 185 186
3 184 186 187
3 187 186 188
3 189 190 191
3 191 190 192
3 193 194 195
3 196 197 198
3 199 200 198
3 198 200 193
3 198 193 196
3 196 193 195
3 201 202 203
3 204 205 206
3 204 206 207
3 208 209 210
3 211 212 213
3 213 212 214
3 215 216 217
3 218 219 220
3 218 220 221
3 221 220 222
3 223 224 225
3 225 224 226
3 227 228 229
3 229 228 230
3 231 227 232
3 232 227 229
3 232 229 233
3 233 229 234
