ply
format ascii 1.0
comment Created by Blender 2.79 (sub 0) - www.blender.org, source file: ''
element vertex 24
property float x
property float y
property float z
property float nx
property float ny
property float nz
property uchar red
property uchar green
property uchar blue
element face 12
property list uchar uint vertex_indices
end_header
1.200000 0.600000 0.030000 1.000000 0.000000 -0.000000 249 255 173
1.200000 -0.600000 0.030000 1.000000 0.000000 -0.000000 249 255 173
1.200000 0.600000 0.000000 1.000000 0.000000 -0.000000 249 255 173
1.200000 -0.600000 -0.000000 1.000000 -0.000000 0.000000 249 255 173
1.200000 0.600000 0.030000 -0.000000 1.000000 0.000000 249 255 173
-1.200000 0.600000 0.000000 -0.000000 1.000000 0.000000 249 255 173
-1.200000 0.600000 0.030000 -0.000000 1.000000 0.000000 249 255 173
1.200000 0.600000 0.000000 0.000000 1.000000 -0.000000 249 255 173
-1.200000 -0.600000 0.030000 -1.000000 -0.000000 0.000000 249 255 173
-1.200000 0.600000 0.030000 -1.000000 -0.000000 0.000000 249 255 173
-1.200000 -0.600000 -0.000000 -1.000000 -0.000000 0.000000 249 255 173
-1.200000 0.600000 0.000000 -1.000000 0.000000 0.000000 249 255 173
1.200000 -0.600000 0.030000 0.000000 -1.000000 0.000000 249 255 173
-1.200000 -0.600000 0.030000 0.000000 -1.000000 0.000000 249 255 173
1.200000 -0.600000 -0.000000 0.000000 -1.000000 0.000000 249 255 173
-1.200000 -0.600000 -0.000000 0.000000 -1.000000 0.000000 249 255 173
-1.200000 0.600000 0.030000 0.000000 -0.000000 1.000000 249 255 173
-1.200000 -0.600000 0.030000 0.000000 -0.000000 1.000000 249 255 173
1.200000 0.600000 0.030000 0.000000 -0.000000 1.000000 249 255 173
1.200000 -0.600000 0.030000 0.000000 -0.000000 1.000000 249 255 173
-1.200000 -0.600000 -0.000000 0.000000 0.000000 -1.000000 249 255 173
-1.200000 0.600000 0.000000 0.000000 0.000000 -1.000000 249 255 173
1.200000 -0.600000 -0.000000 0.000000 0.000000 -1.000000 249 255 173
1.200000 0.600000 0.000000 0.000000 0.000000 -1.000000 249 255 173
3 0 1 2
3 2 1 3
3 4 5 6
3 5 4 7
3 8 9 10
3 9 11 10
3 12 13 14
3 14 13 15
3 16 17 18
3 18 17 19
3 20 21 22
3 22 21 23
