ply
format ascii 1.0
comment Created by Blender 2.79 (sub 0) - www.blender.org, source file: ''
element vertex 84
property float x
property float y
property float z
property float nx
property float ny
property float nz
property uchar red
property uchar green
property uchar blue
element face 56
property list uchar uint vertex_indices
end_header
-0.192000 0.392000 0.020000 1.000000 0.000000 0.000000 255 255 255
-0.192000 0.392000 0.028000 1.000000 0.000000 0.000000 255 255 255
-0.192000 -0.392000 0.020000 1.000000 0.000000 0.000000 255 255 255
-0.192000 -0.392000 0.028000 1.000000 0.000000 0.000000 255 255 255
-0.192000 0.392000 0.612000 1.000000 0.000000 0.000000 255 255 255
-0.192000 0.392000 0.620000 1.000000 0.000000 0.000000 255 255 255
-0.192000 -0.392000 0.612000 1.000000 0.000000 0.000000 255 255 255
-0.192000 -0.392000 0.620000 1.000000 0.000000 0.000000 255 255 255
0.000000 -0.392000 0.020000 0.000000 0.000000 1.000000 255 255 255
0.000000 -0.400000 0.020000 0.000000 0.000000 1.000000 255 255 255
0.200000 -0.400000 0.020000 0.000000 0.000000 1.000000 255 255 255
0.200000 0.400000 0.020000 0.000000 0.000000 1.000000 255 255 255
-0.000000 0.400000 0.020000 0.000000 0.000000 1.000000 255 255 255
-0.000000 0.392000 0.020000 0.000000 0.000000 1.000000 255 255 255
-0.192000 0.392000 0.020000 0.000000 0.000000 1.000000 255 255 255
-0.192000 -0.392000 0.020000 0.000000 0.000000 1.000000 255 255 255
-0.192000 0.392000 0.028000 0.000000 -1.000000 0.000000 255 255 255
-0.192000 0.392000 0.020000 0.000000 -1.000000 0.000000 255 255 255
-0.000000 0.392000 0.020000 0.000000 -1.000000 0.000000 255 255 255
0.000000 0.392000 0.620000 0.000000 -1.000000 0.000000 255 255 255
-0.192000 0.392000 0.620000 0.000000 -1.000000 0.000000 255 255 255
-0.192000 0.392000 0.612000 0.000000 -1.000000 0.000000 255 255 255
-0.200000 0.392000 0.612000 -0.000000 -1.000000 0.000000 255 255 255
-0.200000 0.392000 0.028000 -0.000000 -1.000000 0.000000 255 255 255
0.200000 0.400000 0.020000 -0.000000 1.000000 0.000000 255 255 255
0.200000 0.400000 -0.000000 -0.000000 1.000000 0.000000 255 255 255
-0.000000 0.400000 0.020000 -0.000000 1.000000 0.000000 255 255 255
-0.200000 0.400000 0.000000 -0.000000 1.000000 -0.000000 255 255 255
0.000000 0.400000 0.620000 -0.000000 1.000000 0.000000 255 255 255
-0.200000 0.400000 0.620000 -0.000000 1.000000 0.000000 255 255 255
-0.200000 -0.400000 0.620000 -1.000000 0.000000 0.000000 255 255 255
-0.200000 -0.392000 0.612000 -1.000000 0.000000 0.000000 255 255 255
-0.200000 -0.392000 0.028000 -1.000000 0.000000 0.000000 255 255 255
-0.200000 0.392000 0.612000 -1.000000 -0.000000 -0.000000 255 255 255
-0.200000 0.400000 0.620000 -1.000000 -0.000000 0.000000 255 255 255
-0.200000 0.392000 0.028000 -1.000000 -0.000000 0.000000 255 255 255
-0.200000 0.400000 0.000000 -1.000000 0.000000 0.000000 255 255 255
-0.200000 -0.400000 0.000000 -1.000000 -0.000000 0.000000 255 255 255
0.200000 -0.400000 -0.000000 0.000000 -1.000000 0.000000 255 255 255
0.200000 -0.400000 0.020000 0.000000 -1.000000 0.000000 255 255 255
0.000000 -0.400000 0.020000 0.000000 -1.000000 0.000000 255 255 255
0.000000 -0.400000 0.620000 0.000000 -1.000000 0.000000 255 255 255
-0.200000 -0.400000 0.620000 0.000000 -1.000000 0.000000 255 255 255
-0.200000 -0.400000 0.000000 -0.000000 -1.000000 0.000000 255 255 255
0.200000 0.400000 0.020000 1.000000 0.000000 0.000000 255 255 255
0.200000 -0.400000 0.020000 1.000000 0.000000 0.000000 255 255 255
0.200000 0.400000 -0.000000 1.000000 0.000000 0.000000 255 255 255
0.200000 -0.400000 -0.000000 1.000000 0.000000 -0.000000 255 255 255
0.200000 -0.400000 -0.000000 -0.000000 -0.000000 -1.000000 255 255 255
-0.200000 -0.400000 0.000000 -0.000000 -0.000000 -1.000000 255 255 255
0.200000 0.400000 -0.000000 -0.000000 -0.000000 -1.000000 255 255 255
-0.200000 0.400000 0.000000 -0.000000 -0.000000 -1.000000 255 255 255
0.000000 0.392000 0.620000 1.000000 0.000000 -0.000000 255 255 255
-0.000000 0.392000 0.020000 1.000000 0.000000 -0.000000 255 255 255
0.000000 0.400000 0.620000 1.000000 0.000000 -0.000000 255 255 255
-0.000000 0.400000 0.020000 1.000000 0.000000 -0.000000 255 255 255
0.000000 0.392000 0.620000 -0.000000 0.000000 1.000000 255 255 255
0.000000 0.400000 0.620000 -0.000000 0.000000 1.000000 255 255 255
-0.192000 0.392000 0.620000 -0.000000 0.000000 1.000000 255 255 255
-0.200000 0.400000 0.620000 -0.000000 0.000000 1.000000 255 255 255
-0.192000 -0.392000 0.620000 -0.000000 -0.000000 1.000000 255 255 255
-0.200000 -0.400000 0.620000 -0.000000 -0.000000 1.000000 255 255 255
0.000000 -0.392000 0.620000 0.000000 -0.000000 1.000000 255 255 255
0.000000 -0.400000 0.620000 0.000000 -0.000000 1.000000 255 255 255
-0.192000 -0.392000 0.612000 0.000000 1.000000 0.000000 255 255 255
-0.192000 -0.392000 0.620000 0.000000 1.000000 0.000000 255 255 255
0.000000 -0.392000 0.620000 0.000000 1.000000 0.000000 255 255 255
0.000000 -0.392000 0.020000 0.000000 1.000000 0.000000 255 255 255
-0.192000 -0.392000 0.020000 0.000000 1.000000 0.000000 255 255 255
-0.192000 -0.392000 0.028000 0.000000 1.000000 0.000000 255 255 255
-0.200000 -0.392000 0.028000 0.000000 1.000000 0.000000 255 255 255
-0.200000 -0.392000 0.612000 0.000000 1.000000 0.000000 255 255 255
-0.192000 -0.392000 0.028000 -0.000000 0.000000 1.000000 255 255 255
-0.192000 0.392000 0.028000 -0.000000 0.000000 1.000000 255 255 255
-0.200000 -0.392000 0.028000 -0.000000 0.000000 1.000000 255 255 255
-0.200000 0.392000 0.028000 -0.000000 0.000000 1.000000 255 255 255
-0.192000 0.392000 0.612000 0.000000 0.000000 -1.000000 255 255 255
-0.192000 -0.392000 0.612000 0.000000 0.000000 -1.000000 255 255 255
-0.200000 0.392000 0.612000 0.000000 0.000000 -1.000000 255 255 255
-0.200000 -0.392000 0.612000 0.000000 0.000000 -1.000000 255 255 255
0.000000 -0.392000 0.020000 1.000000 0.000000 -0.000000 255 255 255
0.000000 -0.392000 0.620000 1.000000 0.000000 -0.000000 255 255 255
0.000000 -0.400000 0.020000 1.000000 0.000000 -0.000000 255 255 255
0.000000 -0.400000 0.620000 1.000000 0.000000 -0.000000 255 255 255
3 0 1 2
3 2 1 3
3 4 5 6
3 6 5 7
3 8 9 10
3 11 12 13
3 14 15 13
3 13 15 8
3 13 8 11
3 11 8 10
3 16 17 18
3 19 20 21
3 22 23 21
3 21 23 16
3 21 16 19
3 19 16 18
3 24 25 26
3 26 25 27
3 26 27 28
3 28 27 29
3 30 31 32
3 31 30 33
3 33 30 34
3 33 34 35
3 35 34 36
3 35 36 32
3 36 37 32
3 32 37 30
3 38 39 40
3 41 42 40
3 42 43 40
3 40 43 38
3 44 45 46
3 46 45 47
3 48 49 50
3 50 49 51
3 52 53 54
3 54 53 55
3 56 57 58
3 58 57 59
3 58 59 60
3 60 59 61
3 60 61 62
3 62 61 63
3 64 65 66
3 67 68 69
3 70 71 69
3 69 71 64
3 69 64 67
3 67 64 66
3 72 73 74
3 74 73 75
3 76 77 78
3 78 77 79
3 80 81 82
3 82 81 83
